# AST/ASF file generated using VICON BodyLanguage
# -----------------------------------------------
:version 1.10
:name VICON
:units
  mass 1.0
  length 0.45
  angle deg
:documentation
   .ast/.asf automatically generated from VICON data using
   VICON BodyBuilder and BodyLanguage model FoxedUp or BRILLIANT.MOD
:root
   order TX TY TZ RX RY RZ
   axis XYZ
   position 0 0 0  
   orientation 0 0 0 
:bonedata
  begin
     id 1 
     name lhipjoint
     direction 0.611823 -0.767273 0.19226 
     length 2.47422 
     axis 0 0 0  XYZ
  end
  begin
     id 2 
     name lfemur
     direction 0.34202 -0.939693 0  
     length 7.40835  
     axis 0 0 20  XYZ
    dof rx ry rz
    limits (-160.0 20.0)
           (-70.0 70.0)
           (-60.0 70.0)
  end
  begin
     id 3 
     name ltibia
     direction 0.34202 -0.939693 0   
     length 8.03679   
     axis 0 0 20   XYZ
    dof rx
    limits (-10.0 170.0)
  end
  begin
     id 4 
     name lfoot
     direction 0.0883598 -0.242766 0.966052   
     length 2.06694   
     axis -90 7.62852e-016 20   XYZ
    dof rx rz
    limits (-45.0 90.0)
           (-70.0 20.0)
  end
  begin
     id 5 
     name ltoes
     direction 1.53617e-011 -4.21699e-011 1   
     length 1.03711   
     axis -90 7.62852e-016 20   XYZ
    dof rx
    limits (-90.0 20.0)
  end
  begin
     id 6 
     name rhipjoint
     direction -0.590066 -0.783143 0.196236   
     length 2.42408  
     axis 0 0 0  XYZ 
  end
  begin
     id 7 
     name rfemur
     direction -0.34202 -0.939693 0   
     length 7.88987   
     axis 0 0 -20   XYZ
    dof rx ry rz
    limits (-160.0 20.0)
           (-70.0 70.0)
           (-70.0 60.0)
  end
  begin
     id 8 
     name rtibia
     direction -0.34202 -0.939693 0   
     length 7.87584   
     axis 0 0 -20   XYZ
    dof rx
    limits (-10.0 170.0)
 end
 begin
     id 9 
     name rfoot
     direction -0.130476 -0.358481 0.924374   
     length 2.21745  
     axis -90 -7.62852e-016 -20   XYZ
    dof rx rz
    limits (-45.0 90.0)
           (-20.0 70.0)
  end
  begin
     id 10 
     name rtoes
     direction 8.20695e-005 8.89091e-005 1   
     length 1.09536   
     axis -90 -7.62852e-016 -20   XYZ
    dof rx
    limits (-90.0 20.0)
  end
  begin
     id 11 
     name lowerback
     direction 0.00981224 0.999875 -0.0124197   
     length 1.94808   
     axis 0 0 0   XYZ
    dof rx ry rz
    limits (-20.0 45.0)
           (-30.0 30.0)
           (-30.0 30.0)
  end
  begin
     id 12 
     name upperback
     direction 0.038911 0.999194 0.00981686   
     length 1.94415   
     axis 0 0 0   XYZ
    dof rx ry rz
    limits (-20.0 45.0)
           (-30.0 30.0)
           (-30.0 30.0)
  end
  begin
     id 13 
     name thorax
     direction 0.0330692 0.999334 0.0154389   
     length 1.94117   
     axis 0 0 0   XYZ
    dof rx ry rz
    limits (-20.0 45.0)
           (-30.0 30.0)
           (-30.0 30.0)
  end
  begin
     id 14 
     name lowerneck
     direction -0.0374305 0.99415 0.10132   
     length 1.87291   
     axis 0 0 0   XYZ
    dof rx ry rz
    limits (-20.0 45.0)
           (-30.0 30.0)
           (-30.0 30.0)
  end
  begin
     id 15 
     name upperneck
     direction 0.0120692 0.985979 -0.166431   
     length 1.89248   
     axis 0 0 0   XYZ
    dof rx ry rz
    limits (-20.0 45.0)
           (-30.0 30.0)
           (-30.0 30.0)
  end
  begin
     id 16
     name head
     direction 0.00629908 0.997708 -0.06737  
     length 1.90559  
     axis 0 0 0   XYZ
    dof rx ry rz
    limits (-20.0 45.0)
           (-30.0 30.0)
           (-30.0 30.0)
  end
  begin
     id 17 
     name lclavicle
     direction 0.961536 0.27308 -0.0295863  
     length 3.52757  
     axis 0 0 0   XYZ
    dof ry rz
    limits (-20.0 10.0)
           (0.0 20.0)
  end
  begin
     id 18 
     name lhumerus
     direction 1 -4.48969e-011 2.61153e-029   
     length 5.14845   
     axis 180 -30 -90   XYZ
    dof rx ry rz
    limits (-60.0 90.0)
           (-90.0 90.0)
           (-90.0 90.0)
  end
  begin
     id 19
     name lradius
     direction 1 -4.4896e-011 -3.37549e-027   
     length 3.43674   
     axis 180 -30 -90   XYZ
    dof rx
    limits (-10.0 170.0)
  end
  begin
     id 20
     name lwrist
     direction 1 -4.48969e-011 2.56952e-028   
     length 1.71837   
     axis -5.12785e-016 90 90   XYZ
    dof ry
    limits (-180.0 0.0)
 end
  begin
     id 21 
     name lhand
     direction 1 -4.49094e-011 5.13905e-028   
     length 0.588709   
     axis -3.27915e-016 90 90   XYZ
    dof rx rz
    limits (-90.0 90.0)
           (-45.0 45.0)
  end
  begin
     id 22 
     name lfingers
     direction 1 -4.48821e-011 1.02781e-027   
     length 0.474633   
     axis -6.5583e-016 90 90   XYZ
    dof rx
    limits (0.0 90.0)
  end
  begin
     id 23
     name lthumb
     direction 0.707107 -6.34922e-011 0.707107   
     length 0.68148   
     axis -90 45 2.85299e-015   XYZ
    dof rx rz
    limits (-45.0 45.0)
           (-45.0 45.0)
  end
  begin
     id 24 
     name rclavicle
     direction -0.940964 0.333844 -0.0559866   
     length 3.55948  
     axis 0 0 0   XYZ 
    dof ry rz
    limits (-10.0 20.0)
           (-20.0 0.0)
  end
  begin
     id 25 
     name rhumerus
     direction -1 -4.48973e-011 3.15259e-027  
     length 5.42185   
     axis 180 30 90   XYZ
    dof rx ry rz
    limits (-90.0 60.0)
           (-90.0 90.0)
           (-90.0 90.0)
  end
  begin
     id 26 
     name rradius
     direction -1 -4.48954e-011 -2.56271e-027   
     length 3.51317   
     axis 180 30 90   XYZ
    dof rx
    limits (-10.0 170.0)
  end
  begin
     id 27 
     name rwrist
     direction -1 -4.48943e-011 2.56952e-028   
     length 1.75658   
     axis -5.12785e-016 -90 -90   XYZ
    dof ry
    limits (-180.0 0.0)
  end
  begin
     id 28
     name rhand
     direction -1 -4.4912e-011 5.13905e-028   
     length 0.663187   
     axis -3.27915e-016 -90 -90   XYZ
    dof rx rz
    limits (-90.0 90.0)
           (-45.0 45.0)
  end
  begin
     id 29
     name rfingers
     direction -1 -4.48914e-011 1.02781e-027   
     length 0.534679   
     axis -6.5583e-016 -90 -90   XYZ
    dof rx
    limits (0.0 90.0)
  end
  begin
     id 30
     name rthumb
     direction -0.707107 -6.35033e-011 0.707107   
     length 0.767695   
     axis -90 -45 -2.85299e-015   XYZ
    dof rx rz
    limits (-45.0 45.0)
           (-45.0 45.0)
  end
:hierarchy
  begin
    root lhipjoint rhipjoint lowerback
    lhipjoint lfemur
    lfemur ltibia
    ltibia lfoot
    lfoot ltoes
    rhipjoint rfemur
    rfemur rtibia
    rtibia rfoot
    rfoot rtoes
    lowerback upperback
    upperback thorax
    thorax lowerneck lclavicle rclavicle
    lowerneck upperneck
    upperneck head
    lclavicle lhumerus
    lhumerus lradius
    lradius lwrist
    lwrist lhand lthumb
    lhand lfingers
    rclavicle rhumerus
    rhumerus rradius
    rradius rwrist
    rwrist rhand rthumb
    rhand rfingers
  end

#!OML:ASF F:\VICON\USERDATA\INSTALL\Justin_a\Justin_a.ASF
:FULLY-SPECIFIED
:DEGREES
2261
root 0.658409 21.3069 -4.96146 -451.432 -92.9064 463.123
lowerback 4.21796 1.23963 0.583573
upperback 2.23162 1.60827 3.54089
thorax -0.157041 0.755983 3.24402
lowerneck -7.53152 -1.26572 -3.96214
upperneck 41.0821 -3.56627 -0.0231837
head 15.9253 -2.79952 -0.0245724
rclavicle -1.25234e-014 -1.59028e-015
rhumerus -33.3514 -1.69491 -81.2374
rradius 49.2304
rwrist -5.71656
rhand -34.6124 19.1384
rfingers 7.12502
rthumb -7.77065 -10.6988
lclavicle -1.25234e-014 -1.59028e-015
lhumerus -38.72 7.00346 83.4215
lradius 39.2786
lwrist 3.17857
lhand -18.9579 22.3993
lfingers 7.12502
lthumb 7.34579 52.2517
rfemur -26.6141 2.14881 28.3951
rtibia 41.8175
rfoot -30.6295 4.22507
rtoes 0.9515
lfemur -42.0308 0.444634 -16.3999
ltibia 65.0577
lfoot -16.2459 -4.51699
ltoes -20.4399
2262
root 0.667199 21.2882 -4.94624 -448.116 -93.1029 459.673
lowerback 4.23733 1.21894 0.829592
upperback 2.28273 1.58335 3.64081
thorax -0.109909 0.741999 3.21032
lowerneck -7.47073 -1.21794 -4.03357
upperneck 41.0674 -3.47405 -0.0560552
head 15.9013 -2.77907 -0.0112419
rclavicle -1.19271e-015 -1.51076e-014
rhumerus -33.1887 -1.75763 -81.1083
rradius 49.0666
rwrist -5.46536
rhand -34.1811 19.2613
rfingers 7.12502
rthumb -7.35441 -10.5908
lclavicle -1.19271e-015 -1.51076e-014
lhumerus -38.7229 7.16345 83.4875
lradius 39.1131
lwrist 3.06746
lhand -18.8698 22.4736
lfingers 7.12502
lthumb 7.43079 52.3231
rfemur -26.7332 2.28983 28.5485
rtibia 42.3064
rfoot -30.6983 4.87371
rtoes 3.48986
lfemur -40.9194 0.170367 -16.058
ltibia 63.1646
lfoot -16.1162 -5.11879
ltoes -18.3497
2263
root 0.670551 21.2757 -4.93046 -444.082 -93.1803 455.377
lowerback 4.29824 1.22424 0.924954
upperback 2.39768 1.58648 3.69704
thorax -0.0246958 0.74083 3.21506
lowerneck -7.43358 -1.15921 -4.09686
upperneck 41.0174 -3.39222 -0.000733903
head 15.8662 -2.7482 0.0378843
rclavicle 5.96354e-015 3.02153e-014
rhumerus -33.0344 -1.87789 -80.9761
rradius 48.937
rwrist -5.30476
rhand -33.6297 18.8467
rfingers 7.12502
rthumb -6.82216 -11.0234
lclavicle 5.96354e-015 3.02153e-014
lhumerus -38.6282 7.10541 83.6294
lradius 38.8743
lwrist 3.03661
lhand -18.8956 22.5893
lfingers 7.12502
lthumb 7.40594 52.4397
rfemur -26.6716 2.20842 28.5917
rtibia 42.7443
rfoot -31.2947 4.48198
rtoes 1.27675
lfemur -39.6203 -0.12848 -15.9161
ltibia 61.3841
lfoot -16.046 -6.65003
ltoes -14.5594
2264
root 0.675723 21.2521 -4.90773 -440.33 -93.1005 451.431
lowerback 4.3452 1.21967 0.934491
upperback 2.47488 1.57764 3.66616
thorax 0.0300345 0.735393 3.1782
lowerneck -7.4286 -1.12907 -4.08675
upperneck 40.9905 -3.359 0.0204531
head 15.8498 -2.73115 0.0504943
rclavicle 6.36111e-015 4.77083e-015
rhumerus -32.9203 -1.74613 -80.9185
rradius 48.8236
rwrist -5.44141
rhand -33.4743 18.7304
rfingers 7.12502
rthumb -6.67206 -11.1445
lclavicle 6.36111e-015 4.77083e-015
lhumerus -38.5045 7.15354 83.695
lradius 38.5716
lwrist 2.95955
lhand -19.0886 22.7116
lfingers 7.12502
lthumb 7.21962 52.5685
rfemur -26.7053 1.97606 28.473
rtibia 43.1725
rfoot -31.3413 4.80431
rtoes 0.424175
lfemur -38.4433 -0.442486 -16.055
ltibia 59.7364
lfoot -16.2848 -9.35907
ltoes -10.3942
2265
root 0.684189 21.2286 -4.88348 -437.321 -93.178 448.373
lowerback 4.27953 1.21881 1.05882
upperback 2.50228 1.57537 3.713
thorax 0.09717 0.733663 3.15852
lowerneck -7.47309 -1.15957 -4.08211
upperneck 41.0118 -3.36597 -0.0966319
head 15.8695 -2.74991 -0.00391841
rclavicle 1.90833e-014 2.8625e-014
rhumerus -32.82 -1.69473 -80.8445
rradius 48.7061
rwrist -5.5187
rhand -33.678 18.795
rfingers 7.12502
rthumb -6.86874 -11.0736
lclavicle 1.90833e-014 2.8625e-014
lhumerus -38.4346 7.39184 83.7554
lradius 38.3345
lwrist 2.67886
lhand -19.2574 22.7266
lfingers 7.12502
lthumb 7.05664 52.589
rfemur -26.892 1.79698 28.5069
rtibia 43.5813
rfoot -31.1739 6.27195
rtoes 2.087
lfemur -37.513 -0.730524 -16.0467
ltibia 58.2225
lfoot -16.3504 -4.24803
ltoes -18.7461
2266
root 0.692852 21.2114 -4.86407 -433.842 -93.204 444.866
lowerback 4.13831 1.27645 1.10115
upperback 2.53563 1.64667 3.73104
thorax 0.207627 0.768714 3.15384
lowerneck -7.43292 -1.2007 -4.1505
upperneck 41.0395 -3.42114 -0.10544
head 15.878 -2.78673 -0.00399749
rclavicle 1.53064e-014 1.59028e-014
rhumerus -32.7752 -1.80951 -80.738
rradius 48.6772
rwrist -5.7269
rhand -33.9338 18.9096
rfingers 7.12502
rthumb -7.11565 -10.9508
lclavicle 1.53064e-014 1.59028e-014
lhumerus -38.3404 7.52648 83.8184
lradius 38.1277
lwrist 2.32849
lhand -19.0072 22.7393
lfingers 7.12502
lthumb 7.29821 52.5934
rfemur -27.1382 1.72322 28.4491
rtibia 43.998
rfoot -31.3503 7.33131
rtoes 2.42422
lfemur -36.5777 -1.00925 -16.0993
ltibia 56.747
lfoot -15.5418 -5.28978
ltoes -14.5639
2267
root 0.701566 21.1931 -4.84712 -429.434 -93.2244 440.395
lowerback 4.10333 1.37304 1.117
upperback 2.54705 1.77387 3.73034
thorax 0.233433 0.832233 3.14001
lowerneck -7.34898 -1.23119 -4.25169
upperneck 41.0689 -3.51004 0.0223614
head 15.8819 -2.82581 0.0567694
rclavicle 1.66979e-014 2.8625e-014
rhumerus -32.7431 -2.11247 -80.5374
rradius 48.6135
rwrist -5.59772
rhand -33.9842 18.7173
rfingers 7.12502
rthumb -7.16431 -11.1414
lclavicle 1.66979e-014 2.8625e-014
lhumerus -38.2428 7.4437 83.9654
lradius 37.92
lwrist 2.16159
lhand -18.6406 22.5015
lfingers 7.12502
lthumb 7.65203 52.343
rfemur -27.298 1.7563 28.3424
rtibia 44.3709
rfoot -31.3487 7.14485
rtoes 1.56139
lfemur -35.6562 -1.08958 -16.2276
ltibia 55.391
lfoot -15.7902 -3.66518
ltoes -17.5225
2268
root 0.707081 21.1857 -4.82972 -424.129 -93.259 435.038
lowerback 4.08937 1.38223 1.1208
upperback 2.5395 1.78708 3.68515
thorax 0.234304 0.839676 3.09077
lowerneck -7.43118 -1.17857 -4.21933
upperneck 41.2866 -3.47177 0.0156958
head 16.0157 -2.81583 0.0456736
rclavicle -3.77691e-015 -2.38542e-015
rhumerus -32.6974 -1.92706 -80.6091
rradius 48.5682
rwrist -5.84163
rhand -34.2478 18.5311
rfingers 7.12502
rthumb -7.41877 -11.3188
lclavicle -3.77691e-015 -2.38542e-015
lhumerus -38.3107 7.41991 83.9904
lradius 37.9354
lwrist 2.18439
lhand -18.7456 22.6158
lfingers 7.12502
lthumb 7.55071 52.461
rfemur -27.4359 1.95778 28.173
rtibia 44.7376
rfoot -31.2703 6.93158
rtoes 1.43017
lfemur -34.7406 -1.09043 -16.3791
ltibia 54.1158
lfoot -16.1983 -3.48746
ltoes -15.0915
2269
root 0.716351 21.1834 -4.81214 -419.487 -93.3435 430.326
lowerback 4.13991 1.35098 1.0929
upperback 2.54452 1.74587 3.66836
thorax 0.212793 0.818869 3.08964
lowerneck -7.55652 -1.08719 -4.17223
upperneck 41.4164 -3.32659 -0.0703056
head 16.1083 -2.76562 0.0150076
rclavicle 8.34896e-015 1.90833e-014
rhumerus -32.5897 -1.63449 -80.6732
rradius 48.4233
rwrist -5.85892
rhand -34.3804 18.6005
rfingers 7.12502
rthumb -7.54672 -11.2449
lclavicle 8.34896e-015 1.90833e-014
lhumerus -38.3726 7.4716 84.0255
lradius 37.9529
lwrist 2.22423
lhand -19.1851 23.0484
lfingers 7.12502
lthumb 7.12648 52.9085
rfemur -27.58 2.17855 28.0239
rtibia 45.0784
rfoot -31.3038 7.19246
rtoes 1.89519
lfemur -33.8815 -1.16225 -16.5133
ltibia 53.0059
lfoot -16.9334 -3.34017
ltoes -12.2707
2270
root 0.727864 21.1736 -4.79295 -415.26 -93.4178 426.068
lowerback 4.12426 1.37414 1.05952
upperback 2.52667 1.77686 3.64343
thorax 0.201441 0.834797 3.08143
lowerneck -7.52338 -1.07977 -4.10019
upperneck 41.4677 -3.30699 -0.184344
head 16.1229 -2.76633 -0.0464126
rclavicle -3.06128e-014 -2.78299e-014
rhumerus -32.5782 -1.80658 -80.6091
rradius 48.3335
rwrist -5.4813
rhand -34.0723 18.6542
rfingers 7.12502
rthumb -7.24937 -11.2016
lclavicle -3.06128e-014 -2.78299e-014
lhumerus -38.3725 7.34379 84.1044
lradius 37.8813
lwrist 2.28798
lhand -19.0422 23.2167
lfingers 7.12502
lthumb 7.26444 53.072
rfemur -27.8005 2.15138 27.8739
rtibia 45.4143
rfoot -31.2125 7.90945
rtoes 3.05929
lfemur -33.1285 -1.20204 -16.7442
ltibia 52.0425
lfoot -17.7635 -2.91993
ltoes -11.1469
2271
root 0.73927 21.1624 -4.77351 -410.587 -93.4314 421.326
lowerback 4.126 1.44257 0.901519
upperback 2.5307 1.86383 3.62827
thorax 0.195944 0.877316 3.1511
lowerneck -7.50833 -1.12453 -4.09867
upperneck 41.5417 -3.37498 -0.235074
head 16.1602 -2.80512 -0.0814793
rclavicle 2.54444e-014 -1.59028e-015
rhumerus -32.5886 -1.94619 -80.5194
rradius 48.3509
rwrist -5.56574
rhand -34.1346 18.6313
rfingers 7.12502
rthumb -7.30947 -11.2224
lclavicle 2.54444e-014 -1.59028e-015
lhumerus -38.2877 7.09673 84.3068
lradius 37.7252
lwrist 2.3618
lhand -18.8102 22.9801
lfingers 7.12502
lthumb 7.48836 52.8276
rfemur -27.9715 2.06761 27.6603
rtibia 45.7556
rfoot -31.1538 8.22232
rtoes 2.69393
lfemur -32.4178 -1.04186 -17.1504
ltibia 51.2046
lfoot -18.3936 -2.40094
ltoes -10.5923
2272
root 0.750292 21.1566 -4.75139 -408.088 -93.5663 418.794
lowerback 4.12822 1.43705 0.909406
upperback 2.51108 1.85698 3.65901
thorax 0.174156 0.873692 3.17839
lowerneck -7.51457 -1.11115 -4.09896
upperneck 41.6489 -3.36547 -0.275941
head 16.2188 -2.81352 -0.102052
rclavicle 9.54166e-015 7.95139e-015
rhumerus -32.5721 -1.81017 -80.4581
rradius 48.3762
rwrist -5.81861
rhand -34.1574 18.6905
rfingers 7.12502
rthumb -7.33152 -11.1625
lclavicle 9.54166e-015 7.95139e-015
lhumerus -38.3321 7.10186 84.3969
lradius 37.6723
lwrist 2.37669
lhand -18.6193 22.6488
lfingers 7.12502
lthumb 7.67261 52.4896
rfemur -28.1473 2.02857 27.6045
rtibia 46.0781
rfoot -31.1288 8.28819
rtoes 2.00675
lfemur -31.8508 -0.932171 -17.3902
ltibia 50.4545
lfoot -18.8904 -1.56207
ltoes -10.2761
2273
root 0.763028 21.1539 -4.73 -405.01 -93.6661 415.768
lowerback 4.07736 1.42083 0.927225
upperback 2.48916 1.83713 3.59494
thorax 0.183505 0.865308 3.10373
lowerneck -7.5123 -1.12537 -4.09499
upperneck 41.6517 -3.4271 -0.204869
head 16.2229 -2.83254 -0.0819201
rclavicle 1.5704e-014 -7.95139e-016
rhumerus -32.4017 -1.69213 -80.4036
rradius 48.3327
rwrist -5.99628
rhand -33.9317 18.6382
rfingers 7.12502
rthumb -7.11365 -11.2223
lclavicle 1.5704e-014 -7.95139e-016
lhumerus -38.3494 7.07726 84.4131
lradius 37.7168
lwrist 2.4684
lhand -18.6596 22.4744
lfingers 7.12502
lthumb 7.63374 52.3167
rfemur -28.4315 1.9898 27.4645
rtibia 46.3858
rfoot -31.1436 8.33056
rtoes 0.924765
lfemur -31.4917 -0.834015 -17.6998
ltibia 49.7565
lfoot -19.2354 -0.425596
ltoes -10.6308
2274
root 0.775621 21.1557 -4.70865 -402.537 -93.7557 413.393
lowerback 4.0041 1.37673 1.00823
upperback 2.45267 1.78276 3.50061
thorax 0.19479 0.840869 2.96394
lowerneck -7.4719 -1.20109 -4.1723
upperneck 41.6216 -3.58823 -0.0764947
head 16.2067 -2.89826 -0.0358894
rclavicle 1.86858e-014 4.45278e-014
rhumerus -32.1375 -1.51982 -80.3293
rradius 48.1848
rwrist -6.12828
rhand -33.8699 18.6037
rfingers 7.12502
rthumb -7.05402 -11.2588
lclavicle 1.86858e-014 4.45278e-014
lhumerus -38.444 7.17621 84.3337
lradius 37.8154
lwrist 2.20974
lhand -18.6159 22.4759
lfingers 7.12502
lthumb 7.67586 52.3166
rfemur -28.7598 2.14576 27.2984
rtibia 46.6683
rfoot -31.0634 8.46309
rtoes 0.83436
lfemur -31.2614 -0.771861 -17.9699
ltibia 49.1193
lfoot -19.4236 0.450195
ltoes -9.93655
